<svg width="77" height="77" viewBox="0 0 77 77" fill="none" xmlns="http://www.w3.org/2000/svg">
<path d="M60.9092 17.6612V18.9442L72.9815 18.1035V58.8962L60.9092 58.1211V59.3997L74.2601 60.2536V16.7373L60.9092 17.6612Z" fill="black"/>
<path d="M45.5048 64.7554L3 57.0488V20.2451L45.5048 12.2451V64.7554ZM4.2786 55.9847L44.2306 63.2272V13.7821L4.2786 21.3048V55.9847Z" fill="black"/>
<path d="M45.0269 15.7512V17.0386L59.6301 15.2214V61.7765L45.0269 60.0469V61.3343L60.9087 63.2128V13.7764L45.0269 15.7512Z" fill="black"/>
<path d="M39.2791 44.7164H28.1468C27.9356 42.2943 26.6935 40.0803 24.7341 38.6363L31.0937 32.0966C31.2862 31.9289 31.3017 31.637 31.134 31.4445C31.1216 31.429 31.1061 31.4166 31.0937 31.4042C30.9104 31.2054 30.603 31.193 30.4043 31.3731C30.395 31.3824 30.3857 31.3917 30.3732 31.4042L17.2162 44.971C17.0734 45.1015 17.0299 45.3095 17.1138 45.4834C17.1976 45.6573 17.3839 45.7598 17.5764 45.7412H39.276C39.5586 45.7412 39.7884 45.5114 39.7884 45.2288C39.7884 44.9462 39.5586 44.7164 39.276 44.7164H39.2791Z" fill="#0A65FF"/>
</svg>
