<svg width="77" height="77" viewBox="0 0 77 77" fill="none" xmlns="http://www.w3.org/2000/svg">
<path d="M54.9053 15.1932V8.82655C54.9053 6.93803 53.4829 5.28455 51.5984 5.15892C49.5315 5.02113 47.8051 6.66245 47.8051 8.70092V15.1892H29.1954V8.70092C29.1954 6.66245 27.469 5.01708 25.4022 5.15892C23.5177 5.28455 22.0952 6.93803 22.0952 8.82655V15.1932H10.2291V71.845H66.7714V15.1932H54.9053ZM48.9723 8.70498C48.9723 7.39192 50.0422 6.32203 51.3552 6.32203C52.6683 6.32203 53.7382 7.39192 53.7382 8.70498V15.1932H48.9723V8.70498ZM23.2624 8.70498C23.2624 7.39192 24.3323 6.32203 25.6453 6.32203C26.9584 6.32203 28.0283 7.39192 28.0283 8.70498V15.1932H23.2624V8.70498ZM65.6043 70.6778H61.6489H11.3963V30.1677H65.6043V70.6778ZM65.6043 29.0006H11.3963V16.3644H65.6043V29.0006Z" fill="black"/>
<path d="M25.6454 26.2125C27.6029 26.2125 29.1955 24.6198 29.1955 22.6624C29.1955 20.705 27.6029 19.1123 25.6454 19.1123C23.688 19.1123 22.0953 20.705 22.0953 22.6624C22.0953 24.6198 23.688 26.2125 25.6454 26.2125ZM25.6454 20.2754C26.9585 20.2754 28.0284 21.3453 28.0284 22.6584C28.0284 23.9714 26.9585 25.0413 25.6454 25.0413C24.3324 25.0413 23.2625 23.9714 23.2625 22.6584C23.2625 21.3453 24.3324 20.2754 25.6454 20.2754Z" fill="black"/>
<path d="M51.3554 26.2125C53.3128 26.2125 54.9055 24.6198 54.9055 22.6624C54.9055 20.705 53.3128 19.1123 51.3554 19.1123C49.398 19.1123 47.8053 20.705 47.8053 22.6624C47.8053 24.6198 49.398 26.2125 51.3554 26.2125ZM51.3554 20.2754C52.6685 20.2754 53.7384 21.3453 53.7384 22.6584C53.7384 23.9714 52.6685 25.0413 51.3554 25.0413C50.0424 25.0413 48.9725 23.9714 48.9725 22.6584C48.9725 21.3453 50.0424 20.2754 51.3554 20.2754Z" fill="black"/>
<path d="M35.1936 22.0752H34.0265V23.2424H35.1936V22.0752Z" fill="black"/>
<path d="M43.0393 22.0752H41.8722V23.2424H43.0393V22.0752Z" fill="black"/>
<path d="M39.0838 22.0752H37.9166V23.2424H39.0838V22.0752Z" fill="black"/>
<path d="M28.5471 40.3198V57.9447H32.4539V35.6836H29.4995L23.7853 39.0189L25.4347 42.1921L28.5471 40.3198Z" fill="#0A65FF"/>
<path d="M44.3888 58.2605C49.7221 58.2605 53.2154 53.5918 53.2154 46.828C53.2154 40.0641 49.945 35.3955 44.3888 35.3955C38.8327 35.3955 35.5946 40.1249 35.5946 46.828C35.5946 53.531 38.8651 58.2605 44.3888 58.2605ZM44.3888 39.1118C47.4688 39.1118 49.1507 41.8432 49.1507 46.828C49.1507 51.8127 47.4688 54.5766 44.3888 54.5766C41.3088 54.5766 39.6594 51.8451 39.6594 46.828C39.6594 41.8108 41.3412 39.1118 44.3888 39.1118Z" fill="#0A65FF"/>
<path d="M29.0983 62.8038L27.6799 60.583H26.5209L28.5918 63.7643V65.8717H29.5766V63.7724L31.6393 60.583H30.5289L29.0983 62.8038Z" fill="black"/>
<path d="M33.1751 63.6508H35.4486V62.7431H33.1751V61.503H35.6999V60.583H32.2065V65.8717H35.7364V64.9477H33.1751V63.6508Z" fill="black"/>
<path d="M38.1317 60.583L36.0608 65.8717H37.0821L37.5035 64.7451H39.8095L40.2309 65.8717H41.2887L39.2259 60.583H38.1317ZM37.8277 63.8778L38.6504 61.6732L39.4812 63.8778H37.8277Z" fill="black"/>
<path d="M45.9491 62.1515C45.9491 61.1911 45.2399 60.5791 44.0079 60.5791H41.8843V65.8678H42.8529V63.8415H44.3726C44.7414 63.8415 44.9602 64.0522 44.9602 64.4251V65.8678H45.941V64.3643C45.941 63.8496 45.6613 63.4565 45.1993 63.2903C45.6775 63.0472 45.9491 62.65 45.9491 62.1475V62.1515ZM43.9228 62.9661H42.8488V61.4869H43.9228C44.6482 61.4869 44.944 61.6976 44.944 62.2204C44.944 62.7432 44.6482 62.9702 43.9228 62.9702V62.9661Z" fill="black"/>
<path d="M48.6559 62.7432C47.8008 62.5527 47.6063 62.3947 47.6063 62.034C47.6063 61.5882 47.9305 61.3856 48.4695 61.3856C48.9599 61.3856 49.3611 61.6328 49.511 62.0502L50.3783 61.6936C50.1149 60.9519 49.434 60.498 48.4452 60.498C47.4563 60.498 46.6256 61.1465 46.6256 62.0178C46.6256 62.8891 47.0713 63.3308 48.3722 63.6429C49.2881 63.8617 49.4989 64.036 49.4989 64.4372C49.4989 64.8911 49.0774 65.0654 48.5303 65.0654C47.8657 65.0654 47.4563 64.7614 47.2902 64.2508L46.4513 64.6358C46.7147 65.4504 47.4928 65.9488 48.5384 65.9488C49.6569 65.9488 50.4796 65.3085 50.4796 64.3602C50.4796 63.497 49.9366 63.0391 48.66 62.7432H48.6559Z" fill="black"/>
</svg>
