<svg width="77" height="77" viewBox="0 0 77 77" fill="none" xmlns="http://www.w3.org/2000/svg">
<path d="M56.2864 72.2329C55.2694 72.2329 54.2846 71.7083 53.7416 70.7649L52.1815 68.0589C51.3946 66.6369 51.91 64.8468 53.3274 64.0644C54.7126 63.3005 56.4383 63.7607 57.2575 65.1183L58.8866 67.9439C59.6091 69.3291 59.1167 71.0548 57.7499 71.8418C57.2897 72.1087 56.7835 72.2329 56.2864 72.2329ZM54.7494 64.6167C54.4181 64.6167 54.0821 64.6995 53.7738 64.8698C52.8028 65.4082 52.4484 66.6323 52.9822 67.608L54.5377 70.3047C55.0945 71.2665 56.3279 71.5979 57.2897 71.041C58.2515 70.4842 58.5828 69.2509 58.026 68.289L56.4659 65.5831C56.0932 64.9618 55.4305 64.6167 54.7494 64.6167Z" fill="black"/>
<path d="M22.2829 13.341C22.0298 13.341 21.7721 13.3088 21.519 13.2398C20.7597 13.0373 20.1292 12.5495 19.7381 11.873L18.178 9.16707C17.368 7.76347 17.8513 5.9687 19.2549 5.15876C19.9359 4.76759 20.7275 4.66175 21.4822 4.86423C22.2415 5.06672 22.872 5.55453 23.2632 6.23102L24.8232 8.93697C25.6332 10.3406 25.15 12.1353 23.7464 12.9453C23.2954 13.2076 22.7938 13.341 22.2829 13.341ZM18.9695 8.70687L20.5296 11.4128C20.7965 11.8776 21.2337 12.2136 21.7537 12.3516C22.2737 12.4897 22.8168 12.4207 23.2816 12.1491C24.2434 11.5923 24.5747 10.359 24.0179 9.39716L22.4578 6.69121C22.1909 6.22641 21.7537 5.89047 21.2337 5.75241C20.7137 5.61435 20.1706 5.68338 19.7058 5.9549C19.241 6.22181 18.9051 6.659 18.767 7.17902C18.629 7.69904 18.698 8.24207 18.9695 8.70687Z" fill="black"/>
<path d="M10.405 25.2149C9.88957 25.2149 9.38335 25.0768 8.94156 24.8237L6.23561 23.2591C4.83661 22.4491 4.35801 20.6544 5.16335 19.2508C5.55452 18.5743 6.18499 18.0865 6.94431 17.884C7.69903 17.6815 8.49057 17.7827 9.17166 18.1739L11.8776 19.7386C12.5541 20.1297 13.0419 20.7648 13.2444 21.5195C13.4469 22.2789 13.341 23.0658 12.9499 23.7469C12.4298 24.6489 11.4542 25.2103 10.4096 25.2103L10.405 25.2149ZM7.70364 18.7031C7.52876 18.7031 7.35389 18.7261 7.17901 18.7722C6.65899 18.9102 6.22641 19.2462 5.95949 19.711C5.40726 20.6728 5.734 21.9061 6.69581 22.4629L9.40176 24.0276C9.70549 24.2025 10.0552 24.2945 10.4096 24.2945C11.1229 24.2945 11.7902 23.908 12.1491 23.2913C12.4206 22.8265 12.4897 22.2835 12.3516 21.7634C12.2136 21.2434 11.8822 20.8108 11.4128 20.5393L8.71147 18.9793C8.39853 18.7998 8.05339 18.7077 7.70364 18.7077V18.7031Z" fill="black"/>
<path d="M69.2918 59.2186C68.7948 59.2186 68.2932 59.0944 67.833 58.8275L65.1271 57.2628C63.7281 56.4529 63.2449 54.6581 64.0548 53.2545C64.446 52.5734 65.081 52.0902 65.8358 51.8877C66.5905 51.6852 67.382 51.7865 68.0631 52.1822L70.7691 53.7469C72.1727 54.5569 72.6513 56.3516 71.8459 57.7552C71.3029 58.694 70.3135 59.2232 69.301 59.2232L69.2918 59.2186ZM64.8463 53.7147C64.2941 54.6765 64.6254 55.9098 65.5827 56.4667L68.2886 58.0313C69.2504 58.5882 70.4837 58.2522 71.0406 57.295C71.3075 56.8302 71.3811 56.2872 71.2431 55.7672C71.105 55.2472 70.7691 54.8146 70.3043 54.5431L67.5891 52.9738C67.1243 52.7069 66.5859 52.6378 66.0705 52.7759C65.5504 52.914 65.1179 53.2499 64.8463 53.7147Z" fill="black"/>
<path d="M6.06538 41.4356H2.93605C1.31616 41.4356 0 40.1194 0 38.4995C0 36.8796 1.31616 35.5635 2.93605 35.5635H6.06538C7.68527 35.5635 9.00143 36.8796 9.00143 38.4995C9.00143 40.1194 7.68527 41.4356 6.06538 41.4356ZM0.924994 38.4995C0.924994 39.6086 1.82698 40.5152 2.94065 40.5152H6.06999C7.17906 40.5152 8.08564 39.6132 8.08564 38.4995C8.08564 37.3859 7.18366 36.4839 6.06999 36.4839H2.94065C1.83158 36.4839 0.924994 37.3859 0.924994 38.4995Z" fill="black"/>
<path d="M74.064 41.4356H70.9346C69.3148 41.4356 67.9986 40.1194 67.9986 38.4995C67.9986 36.8796 69.3148 35.5635 70.9346 35.5635H74.064C75.6839 35.5635 77 36.8796 77 38.4995C77 40.1194 75.6839 41.4356 74.064 41.4356ZM70.9346 36.4885C69.8256 36.4885 68.919 37.3905 68.919 38.5041C68.919 39.6178 69.821 40.5198 70.9346 40.5198H74.064C75.173 40.5198 76.0796 39.6178 76.0796 38.5041C76.0796 37.3905 75.1777 36.4885 74.064 36.4885H70.9346Z" fill="black"/>
<path d="M66.5993 25.2138C65.5823 25.2138 64.5929 24.6892 64.0499 23.7504C63.2445 22.3514 63.7277 20.552 65.1221 19.7421L67.8281 18.182C69.2639 17.4043 71.0448 17.9381 71.818 19.3601C72.5589 20.7315 72.0987 22.4434 70.7733 23.258L68.0582 24.8272C67.598 25.0896 67.0964 25.2184 66.5993 25.2184V25.2138ZM64.846 23.2902C65.4028 24.2474 66.6362 24.5787 67.598 24.0311L70.2993 22.4664C71.2013 21.9142 71.5142 20.7407 71.008 19.7973C70.4788 18.8217 69.2547 18.4581 68.2791 18.9828L65.5823 20.5382C64.6251 21.0951 64.2938 22.3284 64.846 23.2902Z" fill="black"/>
<path d="M7.70828 59.2182C6.69125 59.2182 5.70643 58.6936 5.1634 57.7502C4.77223 57.0691 4.66639 56.2822 4.86887 55.5228C5.07136 54.7635 5.55917 54.133 6.23565 53.7419L8.93701 52.1818C10.3222 51.3811 12.0893 51.8413 12.9131 53.2034L12.9269 53.2265C12.9269 53.2265 12.9407 53.2449 12.9453 53.2587C13.7553 54.6577 13.2721 56.457 11.8731 57.2624L9.1671 58.827C8.70691 59.094 8.20069 59.2182 7.70368 59.2182H7.70828ZM10.4096 52.7064C10.0691 52.7064 9.71934 52.7939 9.4018 52.9779L6.70045 54.538C6.23565 54.8049 5.89971 55.2421 5.76165 55.7621C5.62359 56.2822 5.69262 56.8252 5.96414 57.29C6.23105 57.7548 6.66824 58.0907 7.18826 58.2288C7.70828 58.3668 8.25131 58.2978 8.71611 58.0263L11.4175 56.4616C12.3793 55.9048 12.7106 54.6715 12.1538 53.7097L12.1032 53.6222C11.7304 53.0332 11.0815 52.7018 10.4096 52.7018V52.7064Z" fill="black"/>
<path d="M20.7132 72.232C20.2162 72.232 19.71 72.1077 19.2498 71.8408C17.8508 71.0308 17.3676 69.2315 18.1729 67.8325L19.7376 65.1265C20.1288 64.4454 20.7638 63.9622 21.5186 63.7597C22.2733 63.5573 23.0648 63.6631 23.7459 64.0543C25.1495 64.8642 25.6281 66.6636 24.8228 68.0626L23.9622 69.549L23.2581 70.7639C22.7151 71.7027 21.7256 72.232 20.7132 72.232ZM22.2825 64.5789C22.1076 64.5789 21.9327 64.6019 21.7579 64.6479C21.2378 64.786 20.8053 65.1219 20.5337 65.5867L18.9691 68.2927C18.4122 69.2545 18.7436 70.4878 19.7054 71.0446C20.6672 71.6015 21.9005 71.2701 22.4574 70.3083L24.0496 67.5518C24.2935 67.0962 24.3534 66.5761 24.2199 66.0745C24.0818 65.5545 23.7459 65.1219 23.2811 64.8504C22.9728 64.6709 22.6276 64.5789 22.2779 64.5789H22.2825Z" fill="black"/>
<path d="M54.7174 13.3413C53.0975 13.3413 51.7859 12.0205 51.7859 10.4006C51.7859 9.88979 51.924 9.38358 52.1771 8.93719L53.7372 6.23124C54.5471 4.83224 56.3465 4.34904 57.7455 5.15438C59.1445 5.96432 59.6277 7.76369 58.8177 9.16269L57.2577 11.8686C56.7331 12.7752 55.762 13.3367 54.7174 13.3367V13.3413ZM56.2821 5.68821C55.5872 5.68821 54.9061 6.05176 54.5333 6.69603L52.9733 9.40199C52.7984 9.70572 52.7017 10.0555 52.7017 10.4052C52.7017 11.5143 53.6037 12.4209 54.7128 12.4209C55.4307 12.4209 56.098 12.0343 56.4569 11.413L58.017 8.70709C58.5738 7.74528 58.2425 6.51196 57.2807 5.95512C56.9632 5.77104 56.618 5.6836 56.2775 5.6836L56.2821 5.68821Z" fill="black"/>
<path d="M38.5002 9.00143C36.8803 9.00143 35.5641 7.68527 35.5641 6.06538V2.93605C35.5641 2.15372 35.8679 1.4174 36.4201 0.860566C36.9723 0.303729 37.7087 0 38.4956 0C39.2779 0 40.0142 0.303729 40.5665 0.855964C41.1233 1.4082 41.427 2.14451 41.427 2.93145V6.06999C41.427 7.68988 40.1109 9.00604 38.491 9.00604L38.5002 9.00143ZM38.5002 0.920392C37.9618 0.920392 37.4556 1.13208 37.0782 1.51404C36.6962 1.89601 36.4891 2.40222 36.4891 2.94065V6.06999C36.4891 7.17906 37.3911 8.08564 38.5048 8.08564C39.6185 8.08564 40.5205 7.18366 40.5205 6.06999V2.94065C40.5205 2.39762 40.3088 1.89141 39.9268 1.50944C39.5448 1.13208 39.0432 0.920392 38.5048 0.920392H38.5002Z" fill="black"/>
<path d="M38.5 77.0005C36.8801 77.0005 35.564 75.6843 35.564 74.0644V70.9351C35.564 69.3152 36.8801 67.999 38.5 67.999C40.1199 67.999 41.4361 69.3152 41.4361 70.9351V74.0644C41.4361 75.6843 40.1199 77.0005 38.5 77.0005ZM38.5 68.924C37.3909 68.924 36.4844 69.826 36.4844 70.9397V74.069C36.4844 75.1781 37.3863 76.0847 38.5 76.0847C39.6137 76.0847 40.5157 75.1827 40.5157 74.069V70.9397C40.5157 69.8306 39.6137 68.924 38.5 68.924Z" fill="black"/>
<path d="M38.5001 64.1008C24.3997 64.087 12.9132 52.6005 12.8994 38.5001C12.8994 24.3859 24.3813 12.8994 38.5001 12.8994C45.3386 12.8994 51.7676 15.5593 56.5996 20.396C61.4363 25.2327 64.1008 31.6616 64.1008 38.4955C64.1008 52.6097 52.6189 64.0962 38.5001 64.0962V64.1008ZM38.5001 13.3596V13.8198C24.8921 13.8198 13.8198 24.8921 13.8198 38.5001C13.8336 52.0943 24.9059 63.1666 38.5001 63.1804C45.0901 63.1804 51.289 60.6125 55.9508 55.9508C60.6125 51.289 63.1804 45.0901 63.1758 38.5001C63.1758 31.9101 60.6079 25.7113 55.9462 21.0495C51.2844 16.3877 45.0855 13.8198 38.4955 13.8198V13.3596H38.5001Z" fill="black"/>
<path d="M38.4998 59.2183C27.0869 59.2045 17.7955 49.9131 17.7817 38.5002C17.7817 27.0782 27.0731 17.7822 38.4998 17.7822V18.7026C27.5839 18.7026 18.7021 27.5844 18.7021 38.5002C18.7159 49.4023 27.5977 58.2841 38.4998 58.2979V59.2183Z" fill="black"/>
<path fill-rule="evenodd" clip-rule="evenodd" d="M38.4998 18.2412C49.6872 18.2412 58.7576 27.3117 58.7576 38.499C58.7438 49.6818 49.6826 58.7431 38.4998 58.7569V18.2412Z" fill="#0A65FF"/>
<path d="M38.0398 59.2173V17.7812H38.5046C49.9267 17.7812 59.2226 27.0772 59.2226 38.4993C59.2088 49.9121 49.9175 59.2035 38.5046 59.2173H38.0444H38.0398ZM38.9648 18.7062V58.2877C49.6551 58.03 58.2884 49.2495 58.3022 38.4947C58.3022 27.7353 49.669 18.9501 38.9648 18.7016V18.7062Z" fill="#0A65FF"/>
</svg>
