<svg width="77" height="77" viewBox="0 0 77 77" fill="none" xmlns="http://www.w3.org/2000/svg">
<path d="M32.6721 30.7141L17.5396 15.5937L17.8476 15.306C23.4199 10.0984 30.6863 7.0832 38.3133 6.82383L38.7308 6.80762V28.1974L38.366 28.2339C36.3762 28.4406 34.5079 29.2187 32.9558 30.4831L32.6721 30.7141ZM18.7067 15.614L32.7329 29.628C34.2485 28.473 36.0317 27.7314 37.9202 27.472V7.65056C30.7836 7.99099 23.9954 10.8076 18.7108 15.614H18.7067Z" fill="black"/>
<path d="M29.1422 37.7869H7.75244L7.76865 37.3695C8.02802 29.7465 11.0432 22.4761 16.2508 16.9037L16.5385 16.5957L31.6589 31.7282L31.4279 32.0119C30.1635 33.5641 29.3854 35.4323 29.1787 37.4222L29.1422 37.7869ZM8.59539 36.9764H28.4168C28.6762 35.0879 29.4178 33.3088 30.5728 31.789L16.5588 17.7629C11.7524 23.0475 8.93581 29.8397 8.59539 36.9723V36.9764Z" fill="black"/>
<path d="M16.5351 60.4051L16.2474 60.0971C11.0398 54.5247 8.0246 47.2583 7.76523 39.6313L7.74902 39.2139H29.1388L29.1753 39.5786C29.382 41.5684 30.1601 43.4367 31.4245 44.9889L31.6555 45.2725L16.5351 60.4051ZM8.59197 40.0244C8.93239 47.1611 11.749 53.9492 16.5554 59.2339L30.5694 45.2077C29.4144 43.692 28.6728 41.9129 28.4134 40.0203H8.59602L8.59197 40.0244Z" fill="black"/>
<path d="M38.7269 70.1877L38.3094 70.1715C30.6864 69.9121 23.416 66.897 17.8436 61.6894L17.5356 61.4016L32.6682 46.2812L32.9519 46.5122C34.504 47.7767 36.3723 48.5507 38.3621 48.7615L38.7269 48.7979V70.1877ZM18.7069 61.3814C23.9915 66.1878 30.7837 69.0044 37.9163 69.3448V49.5234C36.0278 49.264 34.2487 48.5224 32.729 47.3674L18.7028 61.3814H18.7069Z" fill="black"/>
<path d="M40.1533 70.1877V48.7979L40.5181 48.7615C42.5079 48.5548 44.3762 47.7767 45.9283 46.5122L46.212 46.2812L61.3445 61.4016L61.0365 61.6894C55.4642 66.897 48.1978 69.9121 40.5707 70.1715L40.1533 70.1877ZM40.9638 49.5234V69.3448C48.1005 69.0044 54.8887 66.1878 60.1733 61.3814L46.1472 47.3674C44.6315 48.5224 42.8483 49.264 40.9598 49.5234H40.9638Z" fill="black"/>
<path d="M47.7682 45.2393L62.3334 59.8166C67.4762 54.3172 70.4508 47.14 70.7061 39.6143H50.1025C49.8877 41.677 49.0772 43.6304 47.7642 45.2393H47.7682Z" fill="#0A65FF"/>
<path d="M46.212 30.7149L45.9283 30.4839C44.3762 29.2195 42.5079 28.4454 40.5181 28.2347L40.1533 28.1982V6.8125L40.5707 6.82871C48.1937 7.08808 55.4642 10.1032 61.0365 15.3109L61.3445 15.5986L46.212 30.719V30.7149ZM40.9679 27.4728C42.8564 27.7322 44.6355 28.4738 46.1553 29.6288L60.1814 15.6148C54.8968 10.8084 48.1046 7.99182 40.972 7.65139V27.4728H40.9679Z" fill="black"/>
<path d="M71.1321 37.7869H49.7423L49.7058 37.4222C49.4991 35.4323 48.721 33.5641 47.4566 32.0119L47.2256 31.7282L62.346 16.5957L62.6337 16.9037C67.8413 22.4761 70.8565 29.7465 71.1158 37.3695L71.1321 37.7869ZM50.4677 36.9764H70.2891C69.9487 29.8397 67.1321 23.0515 62.3257 17.7669L48.3117 31.7931C49.4667 33.3088 50.2083 35.0919 50.4677 36.9804V36.9764Z" fill="black"/>
</svg>
