<svg width="77" height="77" viewBox="0 0 77 77" fill="none" xmlns="http://www.w3.org/2000/svg">
<path d="M48.9555 28.7329L53.5674 33.3448C53.6606 33.438 53.7822 33.4866 53.9119 33.4866C54.0415 33.4866 54.1631 33.438 54.2563 33.3448C54.3495 33.2516 54.3982 33.13 54.3982 33.0003V23.0957C54.3982 22.962 54.3495 22.8444 54.2563 22.7512C54.1631 22.658 54.0415 22.6094 53.9119 22.6094H44.0032C43.7357 22.6094 43.5128 22.8282 43.5128 23.0997C43.5128 23.2335 43.5614 23.351 43.6546 23.4442L48.2665 28.0561L28.0399 48.2828L23.428 43.6709C23.3347 43.5777 23.2132 43.5291 23.0835 43.5291C22.9538 43.5291 22.8322 43.5777 22.739 43.6709C22.6458 43.7641 22.5972 43.8857 22.5972 44.0154V53.92C22.5972 54.0537 22.6458 54.1713 22.739 54.2645C22.8322 54.3577 22.9538 54.4063 23.0835 54.4063H32.9922C33.2596 54.4063 33.4825 54.1875 33.4825 53.916C33.4825 53.7822 33.4339 53.6647 33.3407 53.5715L28.7288 48.9596L48.9555 28.7329ZM45.1784 23.578H53.4215V31.821L45.1784 23.578ZM31.8129 53.4296H23.5698V45.1866L31.8129 53.4296Z" fill="black"/>
<path d="M63.4763 17.9293C63.5695 18.0225 63.691 18.0711 63.8207 18.0711H68.2259C68.3597 18.0711 68.4772 18.0225 68.5704 17.9293C68.6636 17.8361 68.7123 17.7145 68.7123 17.5848V8.7744C68.7123 8.64066 68.6636 8.52314 68.5704 8.42993C68.4772 8.33672 68.3556 8.28809 68.2259 8.28809H59.4155C59.2818 8.28809 59.1642 8.33672 59.071 8.42993C58.9778 8.52314 58.9292 8.64472 58.9292 8.7744V13.1796C58.9292 13.4471 59.148 13.67 59.4196 13.67H63.3344V17.5848C63.3344 17.7186 63.383 17.8361 63.4763 17.9293ZM59.9059 12.6933V9.26477H67.7396V17.0985H64.3111V13.1837C64.3111 13.0499 64.2625 12.9324 64.1692 12.8392C64.076 12.746 63.9545 12.6973 63.8248 12.6973H59.9099L59.9059 12.6933Z" fill="black"/>
<path d="M68.7121 68.2264V59.416C68.7121 59.2823 68.6635 59.1647 68.5703 59.0715C68.4771 58.9783 68.3555 58.9297 68.2258 58.9297H63.8206C63.6868 58.9297 63.5693 58.9783 63.4761 59.0715C63.3829 59.1647 63.3343 59.2863 63.3343 59.416V63.3308H59.4194C59.2857 63.3308 59.1682 63.3795 59.075 63.4727C58.9817 63.5659 58.9331 63.6875 58.9331 63.8172V68.2224C58.9331 68.4898 59.152 68.7127 59.4235 68.7127H68.2339C68.3676 68.7127 68.4852 68.6641 68.5784 68.5709C68.6716 68.4777 68.7202 68.3561 68.7202 68.2264H68.7121ZM67.7354 67.7361H59.9017V64.3075H63.8165C63.9503 64.3075 64.0678 64.2589 64.161 64.1657C64.2542 64.0725 64.3028 63.9509 64.3028 63.8212V59.9064H67.7314V67.7401L67.7354 67.7361Z" fill="black"/>
<path d="M8.43335 8.43383C8.34014 8.52704 8.2915 8.64862 8.2915 8.77831V17.5887C8.2915 17.8562 8.51035 18.0791 8.78187 18.0791H13.1871C13.4546 18.0791 13.6775 17.8603 13.6775 17.5887V13.6739H17.5923C17.8598 13.6739 18.0827 13.455 18.0827 13.1835V8.77831C18.0827 8.64457 18.034 8.52704 17.9408 8.43383C17.8476 8.34062 17.726 8.29199 17.5963 8.29199H8.78593C8.65219 8.29199 8.53466 8.34062 8.44145 8.43383H8.43335ZM9.26819 9.26868H17.1019V12.6972H13.1871C13.0533 12.6972 12.9358 12.7458 12.8426 12.839C12.7494 12.9323 12.7008 13.0538 12.7008 13.1835V17.0984H9.27224V9.26462L9.26819 9.26868Z" fill="black"/>
<path d="M18.0705 68.2263V63.8211C18.0705 63.6873 18.0219 63.5698 17.9287 63.4766C17.8355 63.3834 17.7139 63.3348 17.5842 63.3348H13.6693V59.4199C13.6693 59.2862 13.6207 59.1686 13.5275 59.0754C13.4343 58.9822 13.3127 58.9336 13.183 58.9336H8.77782C8.64408 58.9336 8.52656 58.9822 8.43335 59.0754C8.34014 59.1686 8.2915 59.2902 8.2915 59.4199V68.2303C8.2915 68.3641 8.34014 68.4816 8.43335 68.5748C8.52656 68.668 8.64814 68.7166 8.77782 68.7166H17.5882C17.722 68.7166 17.8395 68.668 17.9327 68.5748C18.0259 68.4816 18.0746 68.36 18.0746 68.2303L18.0705 68.2263ZM17.0938 67.7359H9.26008V59.9022H12.6886V63.817C12.6886 63.9508 12.7372 64.0683 12.8305 64.1615C12.9237 64.2547 13.0452 64.3033 13.1749 64.3033H17.0898V67.7319L17.0938 67.7359Z" fill="black"/>
<path d="M23.4324 43.6593C23.404 43.631 23.3513 43.5864 23.2784 43.554C23.2014 43.5215 23.1325 43.5134 23.0879 43.5134C23.0433 43.5134 22.9785 43.5134 22.9015 43.554C22.869 43.5661 22.8082 43.5985 22.7434 43.6593C22.6502 43.7525 22.6016 43.8741 22.6016 44.0038V53.9084C22.6016 54.0422 22.6502 54.1597 22.7434 54.2529C22.8366 54.3461 22.9582 54.3948 23.0879 54.3948H32.9966C33.264 54.3948 33.4869 54.1759 33.4869 53.9044C33.4869 53.7706 33.4383 53.6531 33.3451 53.5599L23.4526 43.6674M53.5718 33.3292C53.665 33.4224 53.7866 33.471 53.9162 33.471C54.0459 33.471 54.1675 33.4224 54.2607 33.3292C54.3539 33.236 54.4026 33.1144 54.4026 32.9847V23.0801C54.4026 22.9463 54.3539 22.8288 54.2607 22.7356C54.1675 22.6424 54.0459 22.5938 53.9162 22.5938H44.0076C43.7401 22.5938 43.5172 22.8126 43.5172 23.0841C43.5172 23.2179 43.5658 23.3354 43.659 23.4286L53.5637 33.3332" fill="#0A65FF"/>
</svg>
