<svg width="77" height="77" viewBox="0 0 77 77" fill="none" xmlns="http://www.w3.org/2000/svg">
<path d="M36.0784 21.9828L36.599 19.6695C36.658 19.4043 36.5696 19.1244 36.3633 18.9476L34.5804 17.3808L36.9428 17.1598C37.213 17.1352 37.4487 16.9633 37.5568 16.7129L38.4948 14.5371L39.4329 16.7129C39.541 16.9633 39.7767 17.1352 40.0468 17.1598L42.4092 17.3808L40.6264 18.9476C40.4201 19.1293 40.3317 19.4043 40.3906 19.6695L40.9113 21.9828L38.873 20.7697C38.6373 20.6322 38.3475 20.6322 38.1117 20.7697L36.0735 21.9828H36.0784Z" fill="black"/>
<path d="M34.5804 24.2265L35.4988 20.1549C35.5528 19.9241 35.4743 19.6834 35.2975 19.5263L32.1591 16.771L36.319 16.3879C36.5548 16.3682 36.7561 16.216 36.8495 15.9999L38.4997 12.1641L40.1499 15.9999C40.2432 16.216 40.4495 16.3633 40.6804 16.3879L44.8354 16.771L41.697 19.5263C41.5202 19.6834 41.4416 19.9241 41.4956 20.15L42.4141 24.2216L38.8238 22.09C38.6225 21.9672 38.3671 21.9672 38.1657 22.09L34.5755 24.2216L34.5804 24.2265Z" fill="#0A65FF"/>
<path d="M49.8251 64.3379C49.7122 64.3379 49.6041 64.3772 49.5157 64.4558L47.5413 66.1993H29.4575L27.4831 64.4607C27.3996 64.387 27.2867 64.3428 27.1737 64.3428H0.470368C0.214974 64.3428 0.00378418 64.554 0.00378418 64.8094V67.7808C0.00378418 69.6766 1.54597 71.2188 3.44177 71.2188H73.562C75.4578 71.2188 77 69.6766 77 67.7808V64.8094C77 64.554 76.7888 64.3428 76.5334 64.3428H49.8251V64.3379ZM76.0668 67.7759C76.0668 69.156 74.9421 70.2807 73.562 70.2807H3.43686C2.05675 70.2807 0.93204 69.156 0.93204 67.7759V65.2711H26.9969L28.9713 67.0097C29.0548 67.0834 29.1677 67.1276 29.2807 67.1276H47.7132C47.8262 67.1276 47.9342 67.0883 48.0226 67.0097L49.997 65.2711H76.0619V67.7759H76.0668Z" fill="black"/>
<path d="M72.526 21.6579H49.8157L49.9728 20.764C49.9974 20.6363 50.0171 20.5037 50.0367 20.376L50.1005 19.934L50.518 19.7719C54.0493 18.4262 55.7094 14.7082 55.4442 8.72612C55.4343 8.47563 55.2281 8.27918 54.9776 8.27918H50.1546V6.25076C50.1546 5.99537 49.9434 5.78418 49.688 5.78418H27.3116C27.0562 5.78418 26.845 5.99537 26.845 6.25076V8.27918H22.022C21.7715 8.27918 21.5653 8.47563 21.5554 8.72612C21.2951 14.7082 22.9503 18.4262 26.4816 19.7719L26.899 19.934L26.9629 20.376C26.9825 20.5086 27.0022 20.6363 27.0267 20.764L27.1839 21.6579H4.47354C4.21815 21.6579 4.00696 21.8691 4.00696 22.1244V61.5483C4.00696 61.8037 4.21815 62.0149 4.47354 62.0149H72.5211C72.7765 62.0149 72.9877 61.8037 72.9877 61.5483V22.1244C72.9877 21.8691 72.7765 21.6579 72.5211 21.6579H72.526ZM50.1546 9.21234H54.5405V9.97361C54.5405 14.1483 53.4894 16.8692 51.3333 18.3034L50.1497 19.0892V9.21234H50.1546ZM26.8499 19.0892L25.6663 18.3034C23.5102 16.8692 22.464 14.1483 22.4591 9.97361V9.21234H26.845V19.0892H26.8499ZM27.7831 6.71735H49.2263V18.7257C49.2263 24.6391 44.418 29.4474 38.5047 29.4474C32.5914 29.4474 27.7831 24.6391 27.7831 18.7257V6.71735ZM43.6715 38.7397H33.3428V36.0434H43.6715V38.7397ZM43.9416 39.6729L46.7018 42.5215H30.3076L33.0678 39.6729H43.9367H43.9416ZM35.882 35.1102L36.5794 33.956C37.0657 33.1506 37.3505 32.1781 37.434 31.0681L37.488 30.3461L38.3279 30.3658C38.4802 30.3707 38.6226 30.3658 38.7699 30.3658L39.5852 30.3412L39.6491 31.0583C39.7522 32.2125 40.0223 33.1948 40.4545 33.9855L41.0734 35.1151H35.8869L35.882 35.1102ZM36.5107 30.8618C36.4075 32.8166 35.6561 34.177 34.2072 35.012L34.0304 35.1151H32.8762C32.6208 35.1151 32.4096 35.3263 32.4096 35.5817V39.0197L28.8734 42.664C28.7408 42.7966 28.7064 42.9979 28.7801 43.1698C28.8538 43.3417 29.0208 43.4547 29.2074 43.4547H47.802C47.9886 43.4547 48.1605 43.3417 48.2293 43.1698C48.2981 42.9979 48.2637 42.7966 48.136 42.664L44.5998 39.0197V35.5817C44.5998 35.3263 44.3886 35.1151 44.1332 35.1151H42.9594L42.8022 35.0365C41.4761 34.3931 40.7198 32.9934 40.5528 30.8717L40.5036 30.2185L41.1421 30.0711C43.0821 29.6193 44.8846 28.6714 46.358 27.3207L46.5742 27.1194H67.2021V56.5387H9.79751V27.1194H30.4254L30.6415 27.3207C32.1297 28.6812 33.9469 29.634 35.9066 30.0809L36.5303 30.2234L36.4959 30.8618H36.5107ZM72.0693 61.0768H4.94013V22.5861H27.4933L27.6849 23.0625C27.9599 23.7403 28.2988 24.3984 28.6966 25.0173L29.453 26.1911H9.32601C9.07062 26.1911 8.85943 26.4023 8.85943 26.6577V57.0102C8.85943 57.2656 9.07062 57.4768 9.32601 57.4768H67.6637C67.9191 57.4768 68.1303 57.2656 68.1303 57.0102V26.6577C68.1303 26.4023 67.9191 26.1911 67.6637 26.1911H47.5368L48.2931 25.0173C48.691 24.3984 49.0299 23.7452 49.3049 23.0625L49.4964 22.5861H72.0496V61.0768H72.0693Z" fill="black"/>
</svg>
